name new_emg_signals
nRows=68
nColumns=7
 
endheader
time	RGLTMED	RRF	RADDLONG	RST	RTA	RGM
2.0100000000003178	0.4119766543830989	0.7341474838265087	0.6500148263006591	0.6664946527922627	0.5553938188517368	0.9275670430180792
2.0200000000003158	0.4117167836520049	0.7330900427782256	0.6507210919811568	0.6664804406970852	0.5553943335164802	0.925393141846654
2.030000000000321	0.4114522740852583	0.7319872807520609	0.6514091157820628	0.666511143030243	0.5554421761448582	0.9232564305633496
2.0400000000003224	0.4111843619216808	0.7308415418077099	0.6520787888092275	0.6665881076835876	0.5555360772396574	0.92116065395129
2.0500000000003205	0.4109142797156148	0.7296552644612085	0.652730054685507	0.6667125283887986	0.5556747091342888	0.9191094283181452
2.060000000000322	0.4106432517922634	0.7284309715726738	0.6533629072089882	0.666885441673825	0.5558566886996972	0.9171062312768088
2.0700000000003236	0.4103724897725206	0.7271712601521084	0.6539773879734511	0.6671077243423654	0.5560805802579738	0.915154391926358
2.080000000000325	0.4101031881810049	0.7258787911209078	0.654573583959401	0.6673800914819724	0.5563448986952657	0.9132570814728372
2.0900000000003303	0.4098365201522914	0.7245562790655509	0.655151625102746	0.6677030950046609	0.5566481127657785	0.9114173043296652
2.1000000000003283	0.4095736332511415	0.7232064820193296	0.6557116818472338	0.6680771227223138	0.55698864857746	0.9096378897370062
2.11000000000033	0.4093156454227371	0.7218321913072997	0.6562539626869293	0.6685023979578278	0.5573648932490165	0.9079214839376916
2.1200000000003314	0.4090636410884949	0.72043622148965	0.6567787117045635	0.6689789796922635	0.5577751987262839	0.9062705429448384
2.1300000000003294	0.4088186674021771	0.719021400438627	0.6572862061112412	0.6695067632469412	0.5582178857445357	0.9046873259336564
2.1400000000003345	0.4085817306802147	0.7175905595832343	0.6577767537915844	0.6700854814979463	0.558691247921335	0.9031738892870672
2.1500000000003325	0.4083537930189994	0.7161465243549182	0.6582506908572976	0.67071470661856	0.559193555962667	0.9017320813221152
2.1600000000003376	0.4081357691110294	0.7146921048658065	0.65870837921182	0.6713938523433537	0.5597230619633027	0.9003635377212913
2.1700000000003357	0.4079285232707894	0.7132300868497418	0.659150204128766	0.6721221767465414	0.5602780037807702	0.8990696776902922
2.1800000000003408	0.407732866680399	0.7117632228947025	0.6595765718475716	0.6728987855262158	0.5608566094607355	0.8978517008609835
2.1900000000003423	0.4075495548642093	0.7102942239932181	0.6599879071901524	0.6737226357857811	0.5614571016906448	0.896710584955451
2.200000000000344	0.4073792854008944	0.7088257514352021	0.6603846512025399	0.674592540302984	0.5620777022575496	0.8956470842242793
2.2100000000003455	0.4072226958808019	0.7073604090653132	0.6607672588255292	0.675507172276108	0.5627166364854761	0.8946617286691347
2.2200000000003435	0.4070803621156585	0.705900735925138	0.6611361965980089	0.6764650705355093	0.5633721376273704	0.8937548240567446
2.2300000000003486	0.4069527966066192	0.7044491992981299	0.6614919403961762	0.6774646452068421	0.5640424511867745	0.8929264527284425
2.24000000000035	0.4068404472755349	0.703008188173781	0.6618349732116383	0.6785041838103953	0.5647258391453835	0.8921764752061294
2.2500000000003517	0.4067436964631656	0.7015800071451112	0.6621657829708583	0.6795818577787508	0.5654205840740211	0.8915045325926453
2.2600000000003533	0.4066628601966296	0.7001668707521925	0.6624848603983582	0.6806957293728126	0.5661249931061862	0.8909100497611343
2.2700000000003584	0.4065981877276829	0.6987708982822489	0.6627926969252456	0.6818437589745336	0.5668374017546393	0.8903922393250117
2.2800000000003564	0.4065498613421029	0.6973941090356567	0.6630897826449856	0.6830238127327579	0.5675561775531434	0.8899501063771093
2.2900000000003615	0.4065179964400363	0.6960384180654133	0.6633766043188694	0.6842336705371529	0.5682797235071134	0.8895824539833893
2.3000000000003595	0.4065026418860555	0.6947056323963552	0.6636536434351361	0.685471034293236	0.5690064813395972	0.8892878894137349
2.310000000000361	0.4065037806269707	0.693397447729113	0.6639213743266863	0.6867335364698574	0.5697349345222957	0.8890648310894798
2.3200000000003627	0.4065213305745248	0.6921154456322749	0.6641802623530835	0.6880187488884946	0.5704636110857141	0.8889115162243743
2.3300000000003642	0.4065551457490657	0.6908610912248423	0.6644307621526012	0.6893241917223929	0.5711910862067784	0.888826009133008
2.340000000000366	0.4066050176796869	0.6896357313494528	0.664673315970571	0.6906473426717568	0.571915984575879	0.8888062101777124
2.3500000000003674	0.4066706770553619	0.6884405932351397	0.6649083520708623	0.6919856462798649	0.5726369825468697	0.8888498653219258
2.360000000000369	0.4067517956207404	0.687276783646607	0.6651362832384407	0.6933365233534652	0.5733528100737056	0.88895457625499
2.3700000000003705	0.4068479883093062	0.6861452885150885	0.6653575053820826	0.6946973804494717	0.5740622524373378	0.8891178110505339
2.380000000000372	0.4069588156057671	0.685046973043764	0.6655723962474923	0.6960656193885234	0.5747641517660342	0.8893369153180088
2.3900000000003736	0.4070837861284714	0.6839825822784239	0.6657813142518193	0.6974386467546051	0.5754574083523819	0.8896091238042297
2.4000000000003716	0.4072223594219605	0.6829527421318385	0.6659845974506031	0.6988138833378648	0.5761409817702587	0.8899315723989852
2.4100000000003767	0.4073739489486985	0.6819579608485822	0.6661825626476339	0.7001887734758729	0.5768138917954023	0.890301310496179
2.4200000000003783	0.4075379252678916	0.6809986308954289	0.6663755046567349	0.7015607942472494	0.577475219134103	0.8907153136594336
2.43000000000038	0.4077136193882388	0.6800750312616205	0.6665636957230534	0.7029274644705406	0.5781241059658031	0.8911704965386877
2.4400000000003814	0.4079003262801066	0.6791873301522066	0.6667473851097128	0.7042863534615487	0.5787597563064741	0.8916637259819554
2.4500000000003865	0.4080973085319119	0.6783355880568586	0.6669267988538106	0.7056350895033704	0.5793814362000062	0.8921918342840328
2.4600000000003845	0.4083038001342597	0.6775197611753582	0.6671021396938213	0.70697136798498	0.5799884737447581	0.8927516325113556
2.470000000000386	0.4085190103745471	0.6767397051794402	0.6672735871685938	0.7082929591662284	0.5805802589618161	0.8933399238398346
2.4800000000003877	0.4087421278236263	0.6759951792888469	0.6674412978861528	0.7095977155284943	0.5811562435107405	0.8939535168395369
2.4900000000003892	0.4089723243950871	0.6752858506375492	0.6676054059588645	0.7108835786720529	0.5817159402584422	0.8945892386374193
2.500000000000391	0.4092087594569581	0.6746112989042349	0.6677660235997048	0.7121485857234015	0.582258922706641	0.8952439478865167
2.5100000000003924	0.4094505839751637	0.6739710211797288	0.6679232418727896	0.7133908752192109	0.582784824283659	0.8959145474674443
2.5200000000003975	0.4096969446676183	0.6733644370427742	0.6680771315898255	0.7146086924381926	0.5832933375052934	0.8965979968463197
2.5300000000003955	0.4099469881471687	0.6727908938149215	0.6682277443426814	0.7158003941588796	0.5837842130086557	0.8972913240117508
2.5400000000004006	0.4101998650312067	0.6722496719643408	0.6683751136610147	0.7169644528290428	0.5842572584613686	0.8979916369126711
2.550000000000402	0.4104547339949091	0.6717399906276881	0.6685192562823227	0.7180994601399446	0.5847123373475337	0.8986961343193477
2.5600000000004	0.4107107657448804	0.6712610132177568	0.6686601735207683	0.7192041300027086	0.5851493676315488	0.899402116031991
2.5700000000004017	0.4109671468893857	0.6708118530835753	0.6687978527206829	0.7202773009265678	0.5855683203007397	0.9001069923648396
2.5800000000003998	0.4112230836811091	0.6703915791889553	0.66893226878109	0.7213179377999432	0.5859692177877364	0.9008082928373516
2.590000000000405	0.4114778056077336	0.6699992217763184	0.6690633857382142	0.7223251330770616	0.5863521322733222	0.9015036740064838
2.6000000000004064	0.4117305688053325	0.6696337779845623	0.6691911583933389	0.7232981073745469	0.5867171838706534	0.9021909263759738
2.610000000000408	0.4119806592693362	0.6692942173913095	0.6693155339740898	0.7242362094847781	0.587064538692163	0.9028679803231776
2.6200000000004096	0.4122273958379649	0.668979487450966	0.6694364538176268	0.7251389158154549	0.5873944068009903	0.9035329109957456
2.630000000000411	0.4124701329241675	0.6686885188002155	0.6695538550647026	0.7260058292679629	0.587707040049588	0.9041839421518868
2.6400000000004127	0.4127082629743948	0.6684202304032156	0.6696676723526914	0.726836677568914	0.5880027298085369	0.9048194489459987
2.6500000000004142	0.4129412186365359	0.668173534511372	0.6697778394945678	0.7276313110702884	0.5882818045901014	0.9054379596873332
2.6600000000004123	0.4131684746244569	0.6679473414174425	0.6698842911297294	0.7283897000339619	0.5885446275732417	0.906038156616142
2.6700000000004174	0.4133895492718658	0.6677405639886103	0.6699869643318103	0.7291119314162132	0.5887915940397557	0.9066188757491744
2.6800000000004154	0.4136040057737751	0.6675521219673366	0.6700858001586226	0.7297982051694473	0.5890231287341685	0.9071791058484264
